<mxfile host="app.diagrams.net" modified="2023-06-13T15:22:53.035Z" agent="Mozilla/5.0 (Windows NT 10.0; Win64; x64) AppleWebKit/537.36 (KHTML, like Gecko) Chrome/114.0.0.0 Safari/537.36" version="21.3.8" etag="_ZaGjW3OLbIem22Kjj3K" type="github">
  <diagram name="Page-1" id="AF281uLcQkHpI2xBWDfc">
    <mxGraphModel>
      <root>
        <mxCell id="0" />
        <mxCell id="1" parent="0" />
      </root>
    </mxGraphModel>
  </diagram>
</mxfile>
